<svg xmlns="http://www.w3.org/2000/svg" viewBox="0 0 128 128" role="img" aria-label="Dev Toolbox Pro">
  <defs>
    <linearGradient id="bg" x1="16" y1="12" x2="116" y2="116" gradientUnits="userSpaceOnUse">
      <stop offset="0%" stop-color="#6366f1"/>
      <stop offset="55%" stop-color="#4f46e5"/>
      <stop offset="100%" stop-color="#10b981"/>
    </linearGradient>
    <linearGradient id="top" x1="64" y1="32" x2="64" y2="68" gradientUnits="userSpaceOnUse">
      <stop offset="0%" stop-color="#ffffff" stop-opacity="0.98"/>
      <stop offset="100%" stop-color="#e0e7ff" stop-opacity="0.92"/>
    </linearGradient>
    <linearGradient id="left" x1="32" y1="48" x2="64" y2="108" gradientUnits="userSpaceOnUse">
      <stop offset="0%" stop-color="#c7d2fe" stop-opacity="0.95"/>
      <stop offset="100%" stop-color="#a5b4fc" stop-opacity="0.82"/>
    </linearGradient>
    <linearGradient id="right" x1="96" y1="48" x2="64" y2="108" gradientUnits="userSpaceOnUse">
      <stop offset="0%" stop-color="#ffffff" stop-opacity="0.96"/>
      <stop offset="100%" stop-color="#dbeafe" stop-opacity="0.88"/>
    </linearGradient>
    <filter id="shadow" x="-20%" y="-20%" width="140%" height="140%">
      <feDropShadow dx="0" dy="4" stdDeviation="4" flood-color="#0f172a" flood-opacity="0.28"/>
    </filter>
  </defs>
  <rect width="128" height="128" rx="28" fill="url(#bg)"/>
  <g filter="url(#shadow)">
    <path d="M64 30 L98 50 L98 90 L64 110 L30 90 L30 50 Z" fill="#0f172a" fill-opacity="0.18"/>
    <path d="M64 30 L98 50 L64 70 L30 50 Z" fill="url(#top)"/>
    <path d="M30 50 L64 70 L64 110 L30 90 Z" fill="url(#left)"/>
    <path d="M64 70 L98 50 L98 90 L64 110 Z" fill="url(#right)"/>
    <path d="M64 30 L64 70" stroke="#4338ca" stroke-width="3.2" stroke-linecap="round" opacity="0.55"/>
    <path d="M30 50 L98 50" stroke="#ffffff" stroke-width="2.4" stroke-linecap="round" opacity="0.35"/>
  </g>
</svg>
