<svg xmlns="http://www.w3.org/2000/svg" viewBox="0 0 64 64" role="img" aria-label="Dev Toolbox Pro">
  <defs>
    <linearGradient id="bg" x1="8" y1="6" x2="58" y2="58" gradientUnits="userSpaceOnUse">
      <stop offset="0%" stop-color="#6366f1"/>
      <stop offset="55%" stop-color="#4f46e5"/>
      <stop offset="100%" stop-color="#10b981"/>
    </linearGradient>
    <linearGradient id="top" x1="32" y1="16" x2="32" y2="34" gradientUnits="userSpaceOnUse">
      <stop offset="0%" stop-color="#ffffff" stop-opacity="0.98"/>
      <stop offset="100%" stop-color="#e0e7ff" stop-opacity="0.92"/>
    </linearGradient>
    <linearGradient id="left" x1="16" y1="24" x2="32" y2="54" gradientUnits="userSpaceOnUse">
      <stop offset="0%" stop-color="#c7d2fe" stop-opacity="0.95"/>
      <stop offset="100%" stop-color="#a5b4fc" stop-opacity="0.82"/>
    </linearGradient>
    <linearGradient id="right" x1="48" y1="24" x2="32" y2="54" gradientUnits="userSpaceOnUse">
      <stop offset="0%" stop-color="#ffffff" stop-opacity="0.96"/>
      <stop offset="100%" stop-color="#dbeafe" stop-opacity="0.88"/>
    </linearGradient>
    <filter id="shadow" x="-20%" y="-20%" width="140%" height="140%">
      <feDropShadow dx="0" dy="2" stdDeviation="2" flood-color="#0f172a" flood-opacity="0.28"/>
    </filter>
  </defs>
  <rect width="64" height="64" rx="16" fill="url(#bg)"/>
  <g filter="url(#shadow)">
    <path d="M32 15 L49 25 L49 45 L32 55 L15 45 L15 25 Z" fill="#0f172a" fill-opacity="0.18"/>
    <path d="M32 15 L49 25 L32 35 L15 25 Z" fill="url(#top)"/>
    <path d="M15 25 L32 35 L32 55 L15 45 Z" fill="url(#left)"/>
    <path d="M32 35 L49 25 L49 45 L32 55 Z" fill="url(#right)"/>
    <path d="M32 15 L32 35" stroke="#4338ca" stroke-width="1.6" stroke-linecap="round" opacity="0.55"/>
    <path d="M15 25 L49 25" stroke="#ffffff" stroke-width="1.2" stroke-linecap="round" opacity="0.35"/>
  </g>
</svg>
